<svg aria-hidden="true" style="position: absolute; width: 0; height: 0; overflow: hidden;" version="1.1" xmlns="http://www.w3.org/2000/svg" xmlns:xlink="http://www.w3.org/1999/xlink">
<defs>
<symbol id="icon-location" viewBox="0 0 32 32">
<path d="M15.938 32c0 0-9.938-14.062-9.938-20.062 0-11.813 9.938-11.938 9.938-11.938s10.062 0.125 10.062 11.875c0 6.187-10.062 20.125-10.062 20.125zM16 6c-2.209 0-4 1.791-4 4s1.791 4 4 4 4-1.791 4-4-1.791-4-4-4z"></path>
</symbol>
<symbol id="icon-phone" viewBox="0 0 32 32">
<path d="M2.126 1.188c1.278-1.281 5.141-1.495 5.17-0.817 0.029 0.677 3.479 8.191 3.509 8.869s-2.274 2.987-2.948 3.663c-0.668 0.669 4.508 6.533 4.606 6.644 0.11 0.099 5.96 5.287 6.628 4.617 0.674-0.676 2.979-2.985 3.653-2.955 0.676 0.029 8.173 3.487 8.849 3.518 0.676 0.029 0.463 3.9-0.815 5.182-1.093 1.095-6.752 5.071-16.592-2.029-1.079-0.622-2.788-2.049-5.38-4.646-0.001-0.001-0.003-0.003-0.005-0.004-0.002-0.003-0.004-0.004-0.006-0.006s-0.004-0.004-0.006-0.006c-0.001-0.002-0.003-0.004-0.004-0.005-2.59-2.598-4.014-4.312-4.635-5.393-7.083-9.864-3.116-15.537-2.024-16.632z"></path>
</symbol>
<symbol id="icon-clock" viewBox="0 0 32 32">
<path d="M16 0c-8.837 0-16 7.163-16 16s7.163 16 16 16 16-7.163 16-16-7.163-16-16-16zM20.586 23.414l-6.586-6.586v-8.828h4v7.172l5.414 5.414-2.829 2.829z"></path>
</symbol>
<symbol id="icon-coffee" viewBox="0 0 32 32">
<path d="M24 12.998v-2c0-0.553-0.447-1-1-1h-22c-0.553 0-1 0.447-1 1v14.001c0 0.18 0.061 0.339 0.143 0.485 0.697 3.708 3.947 6.516 7.857 6.516h8c2.521 0 4.756-1.177 6.221-3h1.779c4.418 0 8-3.583 8-8.001 0-4.419-3.582-8.001-8-8.001zM24 24.999v-8.001c2.209 0 4 1.791 4 4.001 0 2.209-1.791 4-4 4zM5.198 8.504c-0.149 0.27-0.132 0.493 0.152 0.493 0.282 0 0.669-0.224 0.766-0.491 0.993-2.589-4.222-4.694-1.071-7.887 0.323-0.331 0.454-0.617 0.168-0.619-0.287-0.003-0.876 0.27-1.186 0.592-3.036 3.119 2.583 5.311 1.171 7.912zM8.975 8.516c-0.037 0.258 0.121 0.481 0.402 0.481 0.279 0 0.55-0.223 0.578-0.479 0.221-1.854-1.261-3.555-0.371-5.159 0.014-0.29-0.327-0.578-0.769-0.617s-0.834 0.179-0.849 0.467c-0.107 2.092 1.27 3.427 1.009 5.307zM13.402 8.997c0.279 0 0.5-0.223 0.553-0.47 0.507-2.396 4.648-3.134 1.526-7.413-0.334-0.442-0.927-0.848-1.214-0.852-0.288-0.005-0.313 0.39-0.122 0.827 3.107 2.932 0.124 5.036-1.197 7.438-0.044 0.247 0.176 0.47 0.454 0.47zM17.429 8.997c0.28 0 0.468-0.225 0.549-0.488 0.76-2.543 9.339-4.187 2.125-7.687-0.752-0.356-1.728-0.654-1.941-0.642-0.217 0.015 0.294 0.384 0.936 0.787 5.897 3.865 0.402 2.699-2.119 7.55-0.082 0.255 0.171 0.48 0.45 0.48z"></path>
</symbol>
<symbol id="icon-tripadvisor" viewBox="0 0 32 32">
<path  d="M30.681 12.709c0.375-1.609 1.567-3.221 1.567-3.221h-5.349c-3.001-1.94-6.641-2.968-10.684-2.968-4.187 0-7.971 1.040-10.952 3.001h-5.015c0 0 1.18 1.581 1.56 3.181-0.976 1.343-1.556 2.963-1.556 4.743 0 4.421 3.596 8.011 8.016 8.011 2.521 0 4.761-1.18 6.241-3.005l1.7 2.555 1.721-2.581c0.76 0.981 1.76 1.781 2.94 2.32 1.94 0.88 4.123 0.981 6.123 0.24 4.141-1.539 6.261-6.161 4.741-10.301-0.279-0.741-0.64-1.401-1.080-1.98zM26.453 23.472c-1.6 0.593-3.34 0.527-4.893-0.191-1.099-0.511-2.004-1.309-2.651-2.303-0.268-0.399-0.5-0.831-0.671-1.295-0.195-0.527-0.293-1.071-0.345-1.62-0.099-1.109 0.060-2.231 0.54-3.271 0.72-1.552 2.001-2.735 3.601-3.328 3.32-1.219 7 0.481 8.221 3.788 1.221 3.308-0.48 6.993-3.78 8.217zM13.563 21.027c-1.151 1.695-3.096 2.817-5.297 2.817-3.528 0-6.401-2.875-6.401-6.396s2.875-6.403 6.401-6.403 6.397 2.881 6.397 6.403c0 0.219-0.040 0.419-0.064 0.639-0.108 1.081-0.455 2.101-1.036 2.961zM4.2 17.364c0 2.188 1.781 3.961 3.961 3.961s3.957-1.773 3.957-3.961c0-2.18-1.777-3.952-3.955-3.952-2.181 0-3.961 1.772-3.961 3.952zM20.264 17.364c0 2.188 1.772 3.961 3.957 3.961 2.181 0 3.953-1.773 3.953-3.961 0-2.18-1.772-3.952-3.953-3.952-2.18 0-3.961 1.772-3.961 3.952zM5.568 17.364c0-1.428 1.159-2.591 2.581-2.591 1.419 0 2.599 1.164 2.599 2.591 0 1.435-1.159 2.601-2.599 2.601-1.441 0-2.601-1.167-2.601-2.601zM21.612 17.364c0-1.428 1.159-2.591 2.599-2.591 1.421 0 2.583 1.164 2.583 2.591 0 1.435-1.16 2.601-2.603 2.601-1.439 0-2.599-1.167-2.599-2.601zM16.208 7.92c2.881 0 5.481 0.519 7.763 1.549-0.86 0.024-1.7 0.175-2.541 0.48-2.020 0.74-3.62 2.22-4.5 4.167-0.42 0.88-0.64 1.812-0.721 2.753-0.3-4.101-3.68-7.353-7.841-7.437 2.281-0.979 4.923-1.512 7.783-1.512z"></path>
</symbol>
<symbol id="icon-twitter" viewBox="0 0 32 32">
<path  d="M31.939 6.092c-1.18 0.519-2.44 0.872-3.767 1.033 1.352-0.815 2.392-2.099 2.884-3.631-1.268 0.74-2.673 1.279-4.169 1.579-1.195-1.279-2.897-2.079-4.788-2.079-3.623 0-6.56 2.937-6.56 6.556 0 0.52 0.060 1.020 0.169 1.499-5.453-0.257-10.287-2.876-13.521-6.835-0.569 0.963-0.888 2.081-0.888 3.3 0 2.28 1.16 4.284 2.917 5.461-1.076-0.035-2.088-0.331-2.971-0.821v0.081c0 3.18 2.257 5.832 5.261 6.436-0.551 0.148-1.132 0.228-1.728 0.228-0.419 0-0.82-0.040-1.221-0.115 0.841 2.604 3.26 4.503 6.139 4.556-2.24 1.759-5.079 2.807-8.136 2.807-0.52 0-1.039-0.031-1.56-0.089 2.919 1.859 6.357 2.945 10.076 2.945 12.072 0 18.665-9.995 18.665-18.648 0-0.279 0-0.56-0.020-0.84 1.281-0.919 2.4-2.080 3.28-3.397z"></path>
</symbol>
<symbol id="icon-bowl" viewBox="0 0 32 32">
<path d="M27.118 11.955c-3.482 4.643-6.552 4.803-11.274 5.043h-0.162c-5.746-0.003-9.821-2.138-9.821-2.931-0.003-0.754 3.677-2.715 8.968-2.91l0.944-2.357c-0.030 0-0.059-0.003-0.091-0.003-7.853 0-12.466 2.499-12.466 4.882v3.2c0 1.469 0.931 14.318 12.131 14.318s12.8-12.85 12.8-14.318v-3.2c0-0.626-0.322-1.259-0.934-1.853l-0.096 0.13zM28.142 4.323c-0.706-0.528-1.71-0.387-2.238 0.322l-5.773 7.694 3.738-9.341c0.33-0.819-0.070-1.75-0.891-2.082-0.813-0.328-1.754 0.069-2.080 0.894l-5.214 13.027c4.611-0.235 6.843-0.363 9.707-4.178 2.862-3.819 3.070-4.098 3.070-4.098 0.531-0.706 0.389-1.709-0.318-2.24z"></path>
</symbol>
<symbol id="icon-facebook" viewBox="0 0 32 32">
<path d="M27.2 1.6h-22.4c-1.76 0-3.2 1.44-3.2 3.2v22.4c0 1.762 1.44 3.2 3.2 3.2h11.2v-11.2h-3.2v-3.96h3.2v-3.28c0-3.462 1.939-5.894 6.026-5.894l2.885 0.003v4.168h-1.915c-1.59 0-2.195 1.194-2.195 2.301v2.704h4.109l-0.909 3.958h-3.2v11.2h6.4c1.76 0 3.2-1.438 3.2-3.2v-22.4c0-1.76-1.44-3.2-3.2-3.2z"></path>
</symbol>
<symbol id="icon-spoon-knife" viewBox="0 0 32 32">
<path d="M7 0c-3.314 0-6 3.134-6 7 0 3.31 1.969 6.083 4.616 6.812l-0.993 16.191c-0.067 1.098 0.778 1.996 1.878 1.996h1c1.1 0 1.945-0.898 1.878-1.996l-0.993-16.191c2.646-0.729 4.616-3.502 4.616-6.812 0-3.866-2.686-7-6-7zM27.167 0l-1.667 10h-1.25l-0.833-10h-0.833l-0.833 10h-1.25l-1.667-10h-0.833v13c0 0.552 0.448 1 1 1h2.604l-0.982 16.004c-0.067 1.098 0.778 1.996 1.878 1.996h1c1.1 0 1.945-0.898 1.878-1.996l-0.982-16.004h2.604c0.552 0 1-0.448 1-1v-13h-0.833z"></path>
</symbol>
<symbol id="icon-quotes-left" viewBox="0 0 32 32">
<path d="M7.031 14c3.866 0 7 3.134 7 7s-3.134 7-7 7-7-3.134-7-7l-0.031-1c0-7.732 6.268-14 14-14v4c-2.671 0-5.182 1.040-7.071 2.929-0.364 0.364-0.695 0.751-0.995 1.157 0.357-0.056 0.724-0.086 1.097-0.086zM25.031 14c3.866 0 7 3.134 7 7s-3.134 7-7 7-7-3.134-7-7l-0.031-1c0-7.732 6.268-14 14-14v4c-2.671 0-5.182 1.040-7.071 2.929-0.364 0.364-0.695 0.751-0.995 1.157 0.358-0.056 0.724-0.086 1.097-0.086z"></path>
</symbol>
<symbol id="icon-triangle-left" viewBox="0 0 32 32">
<path d="M22.4 8v16l-14.4-8 14.4-8z"></path>
</symbol>
<symbol id="icon-triangle-right" viewBox="0 0 32 32">
<path d="M24 16l-14.4 8v-16l14.4 8z"></path>
</symbol>
<symbol id="icon-warning" viewBox="0 0 32 32">
<path d="M16 2.899l13.409 26.726h-26.819l13.409-26.726zM16 0c-0.69 0-1.379 0.465-1.903 1.395l-13.659 27.222c-1.046 1.86-0.156 3.383 1.978 3.383h27.166c2.134 0 3.025-1.522 1.978-3.383h0l-13.659-27.222c-0.523-0.93-1.213-1.395-1.903-1.395v0z"></path>
<path d="M18 26c0 1.105-0.895 2-2 2s-2-0.895-2-2c0-1.105 0.895-2 2-2s2 0.895 2 2z"></path>
<path d="M16 22c-1.105 0-2-0.895-2-2v-6c0-1.105 0.895-2 2-2s2 0.895 2 2v6c0 1.105-0.895 2-2 2z"></path>
</symbol>
<symbol id="icon-checkmark" viewBox="0 0 32 32">
<path d="M27 4l-15 15-7-7-5 5 12 12 20-20z"></path>
</symbol>
<symbol id="icon-landline" viewBox="0 0 32 32">
<path d="M7.843 0.4c-2.246-0.443-4.459 1-4.91 3.237-1.768 8.728-1.768 15.995 0 24.726 0.395 1.96 2.139 3.317 4.088 3.317 0.272 0 0.547-0.026 0.824-0.080 2.259-0.446 3.726-2.621 3.274-4.858-1.565-7.731-1.565-13.757 0-21.488 0.451-2.234-1.016-4.408-3.275-4.854zM27.2 3.2h-13.702c0.117 0.747 0.13 1.522-0.027 2.304-1.498 7.552-1.498 13.437 0 20.992 0.157 0.784 0.144 1.557 0.027 2.304h13.702c1.76 0 3.2-1.44 3.2-3.2v-19.2c0-1.76-1.438-3.2-3.2-3.2zM19.2 23.2c-1.325 0-2.4-1.075-2.4-2.4s1.075-2.4 2.4-2.4 2.4 1.075 2.4 2.4-1.075 2.4-2.4 2.4zM27.2 14.4h-11.2v-6.4h11.2v6.4z"></path>
</symbol>
<symbol id="icon-bike" viewBox="0 0 32 32">
<path d="M24 9h-4v-2h4c0.552 0 1 0.447 1 1 0 0.552-0.448 1-1 1zM21 0c0-1.657-1.343-3-3-3h-5c-1.657 0-3 1.343-3 3v6h-1v-6c0-2.209 1.791-4 4-4h5c2.209 0 4 1.791 4 4v6h-1v-6zM11 9h-4c-0.553 0-1-0.448-1-1 0-0.553 0.447-1 1-1h4v2zM15.5 11.5c-1.934 0-3.5-1.567-3.5-3.5 0-1.934 1.566-3.5 3.5-3.5s3.5 1.566 3.5 3.5c0 1.933-1.567 3.5-3.5 3.5zM15.5 6c-1.104 0-2 0.896-2 2s0.896 2 2 2 2-0.896 2-2-0.896-2-2-2zM12.112 10.106c0.706 1.133 1.954 1.894 3.388 1.894s2.681-0.761 3.388-1.894c1.78 0.405 3.112 1.991 3.112 3.894v10c0 1.861-1.278 3.412-3 3.858v-5.421c0-1.933-1.567-3.5-3.5-3.5s-3.5 1.567-3.5 3.5v5.421c-1.723-0.446-3-1.997-3-3.858v-10c0-1.903 1.332-3.489 3.112-3.894zM15.5 20c1.381 0 2.5 1.119 2.5 2.5v7c0 1.381-1.119 2.5-2.5 2.5s-2.5-1.119-2.5-2.5v-7c0-1.381 1.119-2.5 2.5-2.5z"></path>
</symbol>
<symbol id="icon-paper-plane" viewBox="0 0 32 32">
<path d="M29.824 4.214c-0.55 0.194-27.714 9.766-28.25 9.955-0.454 0.16-0.555 0.552-0.016 0.766 0.642 0.258 6.074 2.434 6.074 2.434v0l3.6 1.442c0 0 17.341-12.733 17.574-12.906 0.237-0.173 0.509 0.152 0.338 0.338-0.171 0.187-12.594 13.621-12.594 13.621v0.003l-0.723 0.805 0.958 0.515c0 0 7.44 4.006 7.971 4.291 0.466 0.25 1.069 0.043 1.203-0.534 0.158-0.682 4.552-19.618 4.65-20.040 0.126-0.549-0.237-0.883-0.786-0.69zM11.2 27.459c0 0.394 0.222 0.504 0.53 0.226 0.402-0.366 4.56-4.098 4.56-4.098l-5.090-2.63v6.502z"></path>
</symbol>
</defs>
</svg>
